<svg xmlns="http://www.w3.org/2000/svg" viewBox="0 0 35.09 37.68"><defs><style>.cls-1{fill:none;stroke:#fff;stroke-width:2px;}.cls-2{fill:#fff;}</style></defs><title>Fichier 3</title><g id="Calque_2" data-name="Calque 2"><g id="Calque_1-2" data-name="Calque 1"><ellipse class="cls-1" cx="17.54" cy="18.84" rx="16.54" ry="17.84"/><path class="cls-2" d="M30.69,17.81c-.17.66-.3,1.34-.51,2a15.08,15.08,0,0,1-3.91,5.88c-2.48,2.45-5.05,4.81-7.58,7.21-1.35,1.29-1.29,1.3-2.66,0C13.46,30.43,10.82,28,8.31,25.5a27,27,0,0,1-3-3.93A10.15,10.15,0,0,1,4,17.81v-2a23.42,23.42,0,0,1,.71-2.68c2-5.17,8.18-6.3,11.49-1.95.4.54.75,1.12,1.15,1.72.18-.3.34-.58.52-.86,1.53-2.42,3.59-3.8,6.37-3.5s4.75,2.05,5.82,4.86a18.86,18.86,0,0,1,.6,2.41ZM17.33,31.89l.33-.26c2.26-2.12,4.53-4.22,6.77-6.38a19,19,0,0,0,3.64-4.56,7.89,7.89,0,0,0,.51-6.88c-1.56-4.05-6.5-5.17-9.13-1.23a18.1,18.1,0,0,0-1.28,2.57c-.18.41-.36.75-.83.74s-.6-.34-.78-.72a17.53,17.53,0,0,0-1.34-2.67c-1.68-2.43-4.44-3.08-6.75-1.59A6.51,6.51,0,0,0,5.6,16.4a8.68,8.68,0,0,0,2.06,5.84C10.46,25.93,14.06,28.68,17.33,31.89Z"/></g></g></svg>